<?xml version="1.0" encoding="utf-8"?>
<!-- Generator: Adobe Illustrator 15.1.0, SVG Export Plug-In . SVG Version: 6.00 Build 0)  -->
<!DOCTYPE svg PUBLIC "-//W3C//DTD SVG 1.1//EN" "http://www.w3.org/Graphics/SVG/1.1/DTD/svg11.dtd">
<svg version="1.1" id="Layer_1" xmlns="http://www.w3.org/2000/svg" xmlns:xlink="http://www.w3.org/1999/xlink" x="0px" y="0px"
	 width="86px" height="83.333px" viewBox="0 0 86 83.333" enable-background="new 0 0 86 83.333" xml:space="preserve">
<rect fill="#FFFFFF" width="86" height="83.333"/>
<path fill="#FFFFFF" d="M61.649,22.111c-11.291-6.893-29.083-6.48-40.504,0v18.073c-0.137,9.734,6.131,18.799,14.609,22.987
	c1.867,0.919,3.595,1.557,5.645,2.037c2.048-0.48,3.775-1.118,5.642-2.037c8.476-4.186,14.746-13.253,14.606-22.987L61.649,22.111z"
	/>
<g>
	<g>
		<path fill="#C41230" d="M55.095,56.983l-8.525-39.638c-0.357-0.036-0.718-0.058-1.076-0.085l7.162,42.14
			C53.519,58.649,54.333,57.84,55.095,56.983z"/>
		<path fill="#C41230" d="M61.608,41.628l-9.842-23.421c-0.377-0.087-0.758-0.16-1.139-0.235L61.06,45.625
			C61.359,44.319,61.54,42.982,61.608,41.628z"/>
		<path fill="#C41230" d="M47.041,63.169c0.644-0.318,1.27-0.674,1.887-1.046L44.041,17.15c-0.385-0.018-0.771-0.016-1.158-0.025
			l2.964,46.598C46.242,63.547,46.637,63.369,47.041,63.169z"/>
		<path fill="#C41230" d="M59.494,50.227L49.123,17.688c-0.362-0.059-0.728-0.105-1.091-0.155l9.829,35.75
			C58.473,52.301,59.02,51.281,59.494,50.227z"/>
		<path fill="#C41230" d="M61.65,22.109c-2.491-1.52-5.308-2.664-8.291-3.486l8.288,17.362L61.65,22.109z"/>
	</g>
	<g>
		<path fill="#C41230" d="M21.146,22.109v18.073c-0.139,9.734,6.13,18.801,14.608,22.987c1.866,0.92,3.596,1.557,5.644,2.037V17.095
			C34.127,17.154,26.843,18.875,21.146,22.109z M33.663,38.626l1.132,3.476l-2.956-2.148l-2.95,2.148l1.13-3.476l-2.939-2.141h3.634
			l1.126-3.455l1.133,3.455h3.629L33.663,38.626z"/>
	</g>
</g>
</svg>
